<svg version="1.1" viewBox="0.0 0.0 500.0 500.0" fill="none" stroke="none" stroke-linecap="square" stroke-miterlimit="10" xmlns:xlink="http://www.w3.org/1999/xlink" xmlns="http://www.w3.org/2000/svg"><clipPath id="p.0"><path d="m0 0l500.0 0l0 500.0l-500.0 0l0 -500.0z" clip-rule="nonzero"/></clipPath><g clip-path="url(#p.0)"><path fill="#000000" fill-opacity="0.0" d="m0 0l500.0 0l0 500.0l-500.0 0z" fill-rule="evenodd"/><defs><linearGradient id="p.1" gradientUnits="userSpaceOnUse" gradientTransform="matrix(21.64280814381007 0.0 0.0 21.64280814381007 0.0 0.0)" spreadMethod="pad" x1="0.7298163660462283" y1="0.7297380246501465" x2="0.7297380246501465" y2="22.372546168318426"><stop offset="0.0" stop-color="#ffc002"/><stop offset="1.0" stop-color="#795b04"/></linearGradient></defs><path fill="url(#p.1)" d="m15.795276 110.535774l0 0c0 -52.323734 42.416763 -94.7405 94.7405 -94.7405l278.92847 0l0 0c25.12674 0 49.224365 9.981559 66.99164 27.748848c17.767303 17.767288 27.74884 41.864902 27.74884 66.99165l0 278.92847c0 52.32373 -42.416748 94.74048 -94.74048 94.74048l-278.92847 0c-52.323734 0 -94.7405 -42.416748 -94.7405 -94.74048z" fill-rule="evenodd"/><defs><radialGradient id="p.2" gradientUnits="userSpaceOnUse" gradientTransform="matrix(17.102224926627088 0.0 0.0 17.102224926627088 0.0 0.0)" spreadMethod="pad" cx="14.617981056415983" cy="14.617981056415983" fx="14.617981056415983" fy="14.617981056415983" r="17.102224349975586"><stop offset="0.0" stop-color="#ffffff"/><stop offset="1.0" stop-color="#b3b3b3"/></radialGradient></defs><path fill="url(#p.2)" d="m43.181103 126.84348l0 0c0 -46.20546 37.45692 -83.662384 83.662384 -83.662384l246.31305 0l0 0c22.18863 0 43.468475 8.814404 59.158234 24.504147c15.689728 15.689735 24.50415 36.96959 24.50415 59.158234l0 246.31305c0 46.205444 -37.45694 83.662384 -83.662384 83.662384l-246.31305 0c-46.20546 0 -83.662384 -37.45694 -83.662384 -83.662384z" fill-rule="evenodd"/><defs><linearGradient id="p.3" gradientUnits="userSpaceOnUse" gradientTransform="matrix(20.525717893525226 0.0 0.0 20.525717893525226 0.0 0.0)" spreadMethod="pad" x1="2.6949096636009915" y1="1.9231953717029113" x2="2.6948354876441907" y2="22.448913265094113"><stop offset="0.0" stop-color="#51ab2a"/><stop offset="1.0" stop-color="#203e13"/></linearGradient></defs><path fill="url(#p.3)" d="m442.3065 39.476376c-32.999268 1.4999695 -61.498657 11.2497635 -85.49811 29.249386c-7.4998474 5.999878 -26.99942 27.74942 -58.49872 65.248634c-40.499115 49.498962 -86.24812 119.24751 -137.24701 209.24564c-2.999939 4.499878 -5.999878 6.7498474 -8.999817 6.7498474c-2.9999237 0 -5.9998627 -2.999939 -8.999802 -8.999817c-2.9999237 -7.4998474 -8.999802 -21.749542 -17.999603 -42.749115c-2.9999313 -7.499817 -8.249817 -11.999725 -15.749657 -13.499695c-5.9998703 0 -14.999672 2.999939 -26.999405 8.999817c-17.99961 10.499756 -26.999413 22.499512 -26.999413 35.999237c1.4999657 4.4999084 2.2499504 9.749786 2.2499504 15.749664c7.499836 25.499481 18.749592 56.24881 33.749264 92.24808c4.499901 8.999817 8.999802 14.999664 13.499702 17.999603c3.3749237 3.374939 8.437317 5.0624084 15.187172 5.0624084c2.2499466 0 4.687393 -0.1875 7.31234 -0.5625c3.7499084 0.375 7.1717224 0.5625 10.265396 0.5625c9.281052 0 15.609039 -1.6874695 18.983963 -5.0624084c8.999802 -2.999939 16.499634 -11.249756 22.499512 -24.749481c26.999405 -50.99893 71.24844 -120.74747 132.7471 -209.2456c62.998627 -88.49815 107.24765 -145.49695 132.7471 -170.99643l-2.2499695 -11.2497635z" fill-rule="evenodd"/></g></svg>